# xmcd
#
# Track frame offsets:
#       150
#       13250
#       25750
#       36410
#       51737
#       63700
#       77650
#       89452
#       98957
#       110995
#       126690
#       138802
#
# Disc length: 2011 seconds
#
# Revision: 1
# Processed by: cddbd v1.5.1PL0 Copyright (c) Steve Scherf et al.
# Submitted via: MusiCat 1.1
#
DISCID=b607d90c
DTITLE=Zé do Rancho - Viola Enluarada
DYEAR=1900
DGENRE=
TTITLE0=Viola enluarada
TTITLE1=Pingo d'água
TTITLE2=De papo pro ar
TTITLE3=Luar do sertão
TTITLE4=A moda da mula preta
TTITLE5=Saudade de ouro preto
TTITLE6=Viola da moda
TTITLE7=Piracicaba
TTITLE8=Vida marvada
TTITLE9=Tristeza do jeca
TTITLE10=Marvada pinga
TTITLE11=Na serra da mantiqueira
EXTD=\n\n
EXTT0=
EXTT1=
EXTT2=
EXTT3=
EXTT4=
EXTT5=
EXTT6=
EXTT7=
EXTT8=
EXTT9=
EXTT10=
EXTT11=
PLAYORDER=
